
        <svg xmlns="http://www.w3.org/2000/svg" xmlns:xlink="http://www.w3.org/1999/xlink" version="1.1" width="3195.4397394136813" 
        height="996.742671009772" viewBox="0 0 3195.4397394136813 996.742671009772">
			
			<g transform="scale(9.77198697068404) translate(10, 10)">
				<defs id="SvgjsDefs2390"></defs><g id="SvgjsG2391" featureKey="rootContainer" transform="matrix(1,0,0,1,0,0)" fill="#e84141"><rect xmlns="http://www.w3.org/2000/svg" width="307" height="82" rx="10" ry="10"></rect></g><g id="SvgjsG2392" featureKey="symbolFeature-0" transform="matrix(0.7278624307846678,0,0,0.7278624307846678,15.5135996394013,1.7969101146835733)" fill="#ffffff"><g xmlns="http://www.w3.org/2000/svg" display="none"><path display="inline" d="M53.208,26.833c8.301-9.13,9.961-24.069,9.961-24.069h-3.97c0,0-1.628,14.524-9.636,23.682   c-1.261-1.442-2.362-3.013-3.325-4.644h4.865c0.845-1.431,1.59-2.897,2.231-4.361h-9.327c-0.806-1.839-1.458-3.652-1.989-5.356   h13.304c0.495-1.586,0.887-3.067,1.186-4.362H40.834c-0.682-2.963-0.908-4.959-0.908-4.959H35.96c0,0,1.66,14.939,9.959,24.069   c0.571,0.627,1.123,1.236,1.661,1.834c-7.296,8.099-11.62,13.674-11.62,21.402c0,7.725,4.324,13.302,11.62,21.404   c-0.538,0.598-1.09,1.206-1.661,1.833c-8.299,9.13-9.959,24.068-9.959,24.068h3.966c0,0,0.21-1.826,0.82-4.563h15.849   c-0.286-1.284-0.659-2.759-1.147-4.363H41.895c0.514-1.693,1.15-3.51,1.939-5.354h9.675c-0.623-1.459-1.343-2.928-2.166-4.363   h-5.344c1.017-1.771,2.201-3.478,3.564-5.036c8.008,9.156,9.636,23.681,9.636,23.681h3.97c0,0-1.66-14.938-9.961-24.068   c-0.57-0.627-1.122-1.235-1.661-1.835c7.297-8.1,11.622-13.677,11.622-21.402c0-7.727-4.325-13.303-11.622-21.402   C52.086,28.069,52.638,27.46,53.208,26.833z M54.82,37.472h-8.522c-1.012,1.469-1.854,2.91-2.526,4.365h13.574   c0.929,2.009,1.521,4.052,1.743,6.247h-17.06c-0.065,0.649-0.111,1.306-0.111,1.985c0,0.816,0.062,1.604,0.157,2.378h16.968   c-0.269,2.188-0.897,4.231-1.876,6.249H43.95c0.704,1.449,1.588,2.89,2.626,4.363h7.964c-1.384,1.96-3.055,3.988-4.978,6.181   c-6.086-6.939-9.637-12.177-9.637-19.171c0-6.996,3.551-12.232,9.637-19.17C51.615,33.237,53.386,35.389,54.82,37.472z"></path></g><g xmlns="http://www.w3.org/2000/svg" display="none"><g display="inline"><path d="M29.438,62.382c0,0,6.197,1.921,8.561,7.894C38,70.275,36.845,62.963,29.438,62.382z M92.883,7.014    c0,0-5.263-5.475-7.925-4.195c-2.662,1.281,0.294,5.301,0.294,5.301L71.918,21.325c0,0-3.896-3.044-5.222-1.948    c-2.236,1.852-0.407,4.148-0.407,4.148L28.402,61.738c0,0-1.097,0.806,1.019,3.53l-2.586,2.915c0,0-0.496,0.702,0.207,1.198    l-4.311,4.856c0,0-0.69,1.973-0.552,2.771c0,0-19.626,19.328-19.206,19.975c0.42,0.648,19.626-19.326,19.626-19.326    s1.75,0.009,2.151-0.061c0.399-0.069,5.409-5.048,5.409-5.048s0.872,0.879,1.337,0.595c0.466-0.287,3.021-2.784,3.021-2.784    s2.095,2.007,3.439,0.849c1.345-1.156,37.889-38.212,37.889-38.212s2.56,1.721,4.27,0.296c1.71-1.427-2.064-6.026-2.064-6.026    l13.404-13.008c0,0,3.149,2.751,4.971,0.175C98.244,11.855,92.883,7.014,92.883,7.014z M23.763,77.251    c-0.122-0.904-1.019-1.129-1.019-1.129C24.938,75.188,23.763,77.251,23.763,77.251z M30.373,65.721c0,0,1.983,0.758,3.799,3.737    L30.373,65.721z M38,70.275c-1.428,1.275-3.422-0.749-3.422-0.749c-1.35-3.061-4.24-4.313-4.24-4.313    c-2.281-2.489-1.267-3.179-1.267-3.179l12.298-12.268c0,0,0.514,2.554,3.187,5.764c2.904,2.519,5.495,2.828,5.495,2.828    S39.427,69.002,38,70.275z M50.851,56.437c-1.908-4.509-7.424-7.265-7.424-7.265C49.42,50.508,50.851,56.437,50.851,56.437z     M52.213,55.379c-2.734-6.322-7.71-7.73-7.71-7.73C50.544,48.668,52.213,55.379,52.213,55.379z M54.182,54.451    c-0.447-0.694-4.479-6.772-9.413-8.565l0.461-0.42c5.211,1.838,9.417,8.509,9.417,8.509L54.182,54.451z M88.378,6.348l1.036,3.631    L75.361,24.023c-1.342-1.96-2.808-2.345-2.808-2.345L88.378,6.348z M79.558,32.46c-1.526,1.292-2.867,0.082-2.867,0.082    s2.841-2.032-2.74-7.556s-7.146-2.064-7.146-2.064s-1.345-1.827,0.317-2.936c1.663-1.109,7.511,4.78,7.511,4.78    S81.085,31.169,79.558,32.46z M77.627,26.618c0,0-0.467-1.178-1.723-2.037l13.979-14.067l3.274,1.084L77.627,26.618z"></path></g></g><g xmlns="http://www.w3.org/2000/svg"><path d="M24.342,31.218c0,0-0.541-1.895-2.436-2.976c-1.894-1.082-1.622-1.758-2.435-1.758s-2.706,0.134-2.977,0.946   s-0.271,1.623-0.676,2.3c-0.406,0.675-0.677,2.84-0.542,3.517c0.136,0.677,0.677,1.217,0.406,1.624   c-0.27,0.405-2.3,2.842-2.977,3.923c-0.676,1.083-4.464,5.817-5.141,6.9c-0.676,1.083-1.623,1.489-1.353,2.3   c0.271,0.811,1.623,0.54,2.3,0.676c0.676,0.135,2.705,0.678,4.059,0.678c1.353,0,2.164-0.271,2.57-0.137   c0,0-0.406,0.948,0.542,0.948s2.841-0.677,3.653-0.407c0.811,0.271,5.141,1.084,6.899,0.541c0,0,2.029,1.488,2.3,2.572   c0.271,1.081,0.812,2.84,1.894,4.058c1.083,1.218,3.652,4.06,5.411,4.871c0,0-8.928,0-9.605-0.271   c-0.676-0.272-2.299-1.219-3.111-0.541c-0.812,0.675-1.759,0.945-2.299,0.945s-2.03,0.543-2.301,0.947c0,0,1.894-0.541,2.165,0.135   c0,0-1.624,1.354-1.758,2.031c0,0,1.487-0.812,2.029-0.678C21.5,64.5,21.5,64.5,21.5,64.5s0.676,0.541,1.488,0.404   c0,0-1.353,0.947-1.624,1.759c0,0,1.624-0.945,2.299-0.541c0,0,1.218,0.137,2.3,0c0,0-0.405,0.271-0.541,0.812   c0,0,0.811-0.404,1.352-0.135c0.542,0.271,0.542,0.271,0.542,0.271s0.677,0,1.489-0.137c0.812-0.135,1.353-0.945,2.435-0.812   c1.083,0.137,3.111,0.137,3.924,0c0.812-0.134,1.218-0.812,3.517-0.677c2.3,0.137,6.765,0.137,9.064-2.436   c0,0,8.793-3.247,18.399,2.436c0,0,3.924,3.654,7.713,4.06c0,0-2.301,1.622-2.842,1.758c-0.542,0.136-1.76,0-2.164,0.405   c0,0-0.277,0.122-1.176-0.156c-0.896-0.276-2.207-1.172-2.76-0.828c-0.552,0.346-1.103,0.828-1.793,0.896   c-0.69,0.071-1.863,0.967-1.933,1.242c-0.068,0.277-1.587,1.175-1.725,1.519c0,0,1.863-0.275,2.139-0.136   c0.275,0.136-0.966,0.895-1.311,1.792c0,0,1.517-1.173,2.346-0.76c0,0,2.07,0,2.345-0.138c0,0-1.931,0.967-2,1.863   c0,0,1.587-1.104,2.276-0.759c0,0,1.312,0.068,1.795-0.207c0,0-0.208,0.621-0.208,0.896c0,0,0.553-0.413,0.966-0.482   c0,0,2.071-0.483,2.623-0.967c0,0,4.209-0.689,4.829-0.62c0.622,0.069,6.763,1.312,6.624-0.69   c-0.138-2.001-0.345-3.864,0.139-4.484c0.482-0.621,0.688,2.346,0.688,3.312c0,0.967,1.863,7.591-13.66,6.693   c0,0-4.692,0.551-11.178-3.312s-13.938-4.762-16.283-4.69c-2.346,0.068-9.867,0.827-15.248,2.827   c-5.383,2.002-10.765,1.933-11.385,1.863c0,0,1.035,1.656,11.178-0.483c10.142-2.139,14.972-3.104,19.94-1.653   c4.967,1.446,14.835,6.76,17.042,7.38c2.207,0.623,12.765,3.38,19.664-0.827c0,0,4.104-1.547,4.605-8.765   c0.007-0.088,0.012-0.182,0.018-0.273c0,0,1.448-1.174,1.655-1.795s2.346-3.793,3.312-4.346c0.966-0.552,0.966-1.034,0.966-1.45   c0-0.413-0.207-1.654-0.07-2.139c0,0,0.276-0.345-0.412-0.413c-0.69-0.069-2.278-0.553-2.416-0.896c0,0,0.552-2.07,0.483-3.106   c-0.069-1.034,0.759,0.553,0.759,1.036c0,0.481,0.36-2.233-0.276-3.244c-0.636-1.008-0.137-3.312-0.552-4.761   c-0.414-1.448,1.141,2.19,1.191,2.718s-0.501-3.478-1.743-4.993c0,0,1.655,1.447,1.655,1.932c0,0.482-0.758-2.484-1.793-3.519   c-1.035-1.036-0.966-1.657-0.966-1.657s1.587,1.31,1.725,1.795c0.137,0.482-0.829-1.45-1.794-2.899   c-0.967-1.448-1.104-1.793-1.104-1.793s2.346,1.793,2.553,2.346c0.208,0.552-1.655-2.829-2.69-3.45   c-1.036-0.621-1.862-1.449-1.862-1.449s2.207,1.449,2.622,1.725c0.413,0.276-2.103-2.296-2.88-2.838   c-0.778-0.543-1.95-1.44-1.95-1.44s1.189,0.078,1.725,0.552c0.536,0.474-1.173-1.38-2.07-1.725   c-0.896-0.345,0.069-0.759,0.551-0.483c0.485,0.275-1.378-1.173-2.275-1.656s-1.449-0.759-1.449-0.759s3.104,1.242,3.312,1.449   c0.208,0.207-3.312-2.415-3.933-2.553c-0.62-0.137,1.555,0.258,1.951,0.404c0.396,0.148-3.952-2.06-4.573-2.198   c-0.621-0.139-0.552-0.69-0.552-0.69s2.554,0.414,3.035,0.69c0.484,0.276-5.587-2.484-6.208-2.484s1.311-0.207,1.654-0.138   c0.346,0.069-3.587-0.759-3.933-0.759c-0.345,0,1.795-0.345,1.795-0.345s-4.347-0.069-4.554-0.276   c-0.207-0.208-3.313-0.69-4.278-0.621c-0.966,0.068,1.587-0.483,1.932-0.415c0.346,0.07-4.277,0.346-5.175,0.622   c-0.896,0.275-1.241,0.069-1.241,0.069s1.518-0.759,1.862-0.759s-4.348,0-5.105,0.415c-0.76,0.413-5.037,0.759-5.727,0.966   s-1.103,0.345-1.103,0.345s1.517-0.898,2.068-0.967c0.553-0.069-5.104,1.38-5.519,1.794c-0.415,0.415-1.726,1.035-2.07,1.243   c-0.345,0.206-3.45,1.862-4.347,2.069c-0.897,0.208-5.037,1.726-7.314,1.381c0,0-0.494-2.16-1.48-3.27   c-0.057-0.064-0.116-0.125-0.175-0.18c-1.104-1.037-0.828-0.76-1.449-1.037c-0.621-0.275-1.794-0.896-2.277-0.414   C26.417,27.837,24.889,30.667,24.342,31.218z"></path></g></g><g id="SvgjsG2393" featureKey="vMvB0T-0" transform="matrix(1.5528783704131663,0,0,1.5528783704131663,101.43213969786774,21.42195633655136)" fill="#ffffff"><path d="M2.84 19.84 c0.06 0.02 0.24 0.02 0.42 0.02 c0.4 0 0.52 -1.44 0.56 -1.74 c0.02 -0.24 0.08 -0.26 0.28 -0.3 c1 -0.12 1.5 -0.04 2.5 -0.02 c0.22 0 0.34 0.1 0.4 0.28 l0.14 0.46 c0.12 0.34 0.22 0.76 0.34 1.1 c0.08 0.24 0.1 0.22 0.34 0.22 c0.32 0 1.48 0 1.82 -0.02 c0.46 0 0.14 -0.94 0.08 -1.1 c-0.18 -0.56 -0.22 -1.14 -0.4 -1.7 c-0.08 -0.24 -2.36 -11.06 -2.46 -11.66 c-0.14 -0.36 -0.02 -0.38 -0.34 -0.38 c-0.68 0 -1.4 0.04 -2.1 0 c-0.28 0 -0.26 0.08 -0.3 0.38 c-0.04 0.28 -0.76 3.46 -1.04 4.78 c-0.36 1.66 -0.68 3.26 -1.08 4.9 c-0.14 0.58 -1.1 4.76 -0.98 4.78 c0.06 0.04 0.16 0.02 0.24 0.02 c0.5 0 0.96 0 1.58 -0.02 z M5.46 15.3 l-0.42 0 c-0.56 0 -0.58 0 -0.44 -0.58 c0.1 -0.44 0.64 -2.82 0.76 -3.4 c0.02 -0.04 0.06 -0.08 0.08 -0.08 c0.04 0 0.08 0.04 0.1 0.06 c0.08 0.24 0.16 0.84 0.24 1.08 c0.18 0.76 0.3 1.4 0.48 2.22 c0.18 0.72 0.1 0.72 -0.26 0.72 c-0.18 0 -0.36 -0.02 -0.54 -0.02 z M16.26 20.02 c0.3 0 1.4 0.02 1.62 -0.02 c0.14 -0.04 0.22 -0.4 0.26 -0.52 c0.12 -0.38 0.2 -0.78 0.3 -1.16 c0.22 -1 2.44 -9.4 3.22 -12.54 c0.04 -0.14 0.08 -0.3 0.04 -0.44 c-0.06 -0.3 -0.24 -0.34 -0.48 -0.34 c-0.46 0.02 -0.92 0 -1.38 0 c-0.52 0 -0.72 0.06 -0.88 0.64 c-0.78 2.68 -1.3 5.88 -2.02 8.6 l-0.12 0.32 c0 0.02 -0.08 0 -0.08 0 c-0.04 -0.1 -0.1 -0.18 -0.12 -0.28 c-0.72 -2.86 -1.9 -8.52 -2.1 -9.06 c-0.12 -0.32 -0.42 -0.22 -0.7 -0.22 c-0.56 0 -1.08 0.02 -1.62 0.02 c-0.2 0.02 -0.34 0.1 -0.32 0.3 c0 0.16 0.22 1.04 0.26 1.28 l0.22 0.84 c0.14 0.64 0.34 1.44 0.48 2.06 c0.76 3.18 1.58 6.36 2.48 9.5 c0.08 0.28 0.14 0.76 0.34 0.92 c0.16 0.14 0.42 0.08 0.6 0.1 z M25.56 19.84 c0.06 0.02 0.24 0.02 0.42 0.02 c0.4 0 0.52 -1.44 0.56 -1.74 c0.02 -0.24 0.08 -0.26 0.28 -0.3 c1 -0.12 1.5 -0.04 2.5 -0.02 c0.22 0 0.34 0.1 0.4 0.28 l0.14 0.46 c0.12 0.34 0.22 0.76 0.34 1.1 c0.08 0.24 0.1 0.22 0.34 0.22 c0.32 0 1.48 0 1.82 -0.02 c0.46 0 0.14 -0.94 0.08 -1.1 c-0.18 -0.56 -0.22 -1.14 -0.4 -1.7 c-0.08 -0.24 -2.36 -11.06 -2.46 -11.66 c-0.14 -0.36 -0.02 -0.38 -0.34 -0.38 c-0.68 0 -1.4 0.04 -2.1 0 c-0.28 0 -0.26 0.08 -0.3 0.38 c-0.04 0.28 -0.76 3.46 -1.04 4.78 c-0.36 1.66 -0.68 3.26 -1.08 4.9 c-0.14 0.58 -1.1 4.76 -0.98 4.78 c0.06 0.04 0.16 0.02 0.24 0.02 c0.5 0 0.96 0 1.58 -0.02 z M28.18 15.3 l-0.42 0 c-0.56 0 -0.58 0 -0.44 -0.58 c0.1 -0.44 0.64 -2.82 0.76 -3.4 c0.02 -0.04 0.06 -0.08 0.08 -0.08 c0.04 0 0.08 0.04 0.1 0.06 c0.08 0.24 0.16 0.84 0.24 1.08 c0.18 0.76 0.3 1.4 0.48 2.22 c0.18 0.72 0.1 0.72 -0.26 0.72 c-0.18 0 -0.36 -0.02 -0.54 -0.02 z M37.28 4.98 c-0.44 0.02 -1.62 0 -1.78 0 c-0.28 -0.02 -0.46 0.14 -0.44 0.42 c0 0.12 0.04 0.24 0.1 0.34 c0.58 1.1 1.12 2.34 1.64 3.46 l1.26 2.64 c0.12 0.26 0.04 0.48 -0.06 0.74 c-0.06 0.14 -0.1 0.3 -0.16 0.44 c-0.78 1.84 -1.66 3.7 -2.6 5.46 c-0.2 0.38 -0.42 0.78 -0.6 1.16 c-0.24 0.48 0.56 0.36 1.46 0.36 c1.42 0 1.44 -0.08 1.52 -0.26 c0.22 -0.46 1.54 -4.54 1.92 -4.54 c0.3 0 1.78 3.94 2.12 4.58 c0.08 0.16 0.34 0.24 0.54 0.24 l1.38 0 c0.26 0 0.88 0.08 0.88 -0.26 c0 -0.26 -1 -1.94 -1.28 -2.56 l-1.22 -2.72 c-0.2 -0.44 -0.38 -0.88 -0.58 -1.3 c-0.14 -0.34 -0.4 -0.78 -0.42 -1.14 c0 -0.2 2.26 -4.58 3.1 -6.64 c0.2 -0.5 -0.56 -0.4 -0.82 -0.4 c-0.48 0.02 -0.88 0 -1.34 0.02 c-0.44 0 -0.56 0.12 -0.72 0.5 l-0.12 0.28 c-0.4 0.84 -0.98 2.38 -1.4 3.22 c-0.02 0.04 -0.08 0.1 -0.12 0.1 c-0.06 0 -0.12 -0.06 -0.12 -0.12 c-0.34 -0.86 -1.04 -2.68 -1.44 -3.5 c-0.18 -0.36 -0.28 -0.54 -0.7 -0.52 z M59.980000000000004 5.460000000000001 c0.06 0.28 0.02 13.6 0.02 13.94 c0 0.6 -0.22 0.58 -0.62 0.58 c-0.6 0 -1.44 0.1 -1.62 -0.1 c-0.16 -0.14 -3.12 -7.28 -3.54 -8.18 c-0.04 -0.08 -0.14 -0.28 -0.22 -0.24 c-0.1 0.04 -0.06 0.18 -0.06 0.26 c-0.02 0.7 0.1 6.74 0.1 7.7 c0 0.48 -0.02 0.56 -0.42 0.56 l-1 0 c-0.26 0 -0.58 -0.02 -0.84 0.02 c-0.2 0 -0.3 -0.06 -0.32 -0.26 l0 -1.58 c0.04 -1.68 0 -11.64 0 -12.38 c0 -0.64 0.18 -0.76 0.82 -0.76 c0.44 -0.02 0.88 -0.02 1.32 -0.02 c0.14 0 0.22 0.02 0.3 0.2 c0.54 1.26 2.84 7.04 3.2 7.74 c0.06 0.14 0.28 0.7 0.4 0.76 l0.02 0 c0.08 -0.08 0.06 -0.48 0.06 -0.6 c0 -0.3 -0.16 -7.32 -0.16 -7.46 c0 -0.2 -0.06 -0.38 0.04 -0.52 c0.06 -0.08 0.32 -0.1 0.42 -0.12 c0.56 -0.04 1.22 0.02 1.78 0 c0.28 0 0.26 0.2 0.32 0.46 z M64.78 14.84 c-0.06 -2.28 -0.04 -4.7 -0.02 -6.96 c0 -0.7 -0.04 -1.46 -0.04 -2.16 c0 -0.76 -0.3 -0.72 -0.7 -0.74 c-0.58 -0.02 -0.84 -0.02 -1.42 -0.02 c-0.38 -0.02 -0.54 0.08 -0.54 0.46 c0 1.96 -0.06 7.5 -0.04 8.3 s0.1 4.44 0.06 5.24 c-0.02 0.28 0 0.56 0.02 0.84 c0.02 0.1 0.08 0.2 0.24 0.2 c0.66 -0.04 1.28 -0.04 1.94 -0.06 c0.24 -0.02 0.44 -0.08 0.54 -0.34 c0.02 -0.14 -0.04 -3.8 -0.04 -4.76 z M66.84 6.539999999999999 c0 0.96 -0.04 11.28 0 12.2 c0.02 0.22 0.02 0.44 0.02 0.66 c0 0.16 0.1 0.26 0.24 0.32 c0.12 0.04 0.28 0.08 0.4 0.08 c0.58 -0.06 1.2 0 1.8 -0.02 c1.04 0.08 1.98 -0.16 2.88 -0.64 c0.84 -0.48 1.3 -1.34 1.62 -2.24 c0.26 -0.76 0.22 -1.66 0.08 -2.44 c-0.12 -0.7 -0.44 -1.38 -0.86 -1.94 c-0.06 -0.08 -0.92 -0.62 -0.88 -0.66 c0.52 -0.74 1.26 -1.36 1.36 -2.28 c0.08 -0.8 -0.1 -1.62 -0.38 -2.36 c-0.18 -0.48 -0.42 -0.94 -0.8 -1.3 c-0.64 -0.6 -1.6 -0.86 -2.44 -0.94 c-0.86 -0.08 -1.66 -0.02 -2.52 -0.06 c-0.3 0 -0.44 0.12 -0.44 0.44 c0 0.42 -0.08 0.76 -0.08 1.18 z M69.30000000000001 10.18 c-0.02 -0.22 0 -1.98 -0.04 -2.64 c-0.02 -0.24 0.12 -0.36 0.38 -0.3 c0.2 0.04 0.36 0.06 0.52 0.18 c0.5 0.38 0.88 0.84 0.9 1.48 c0 0.32 0 0.64 -0.12 0.94 c-0.14 0.36 -0.34 0.64 -0.7 0.82 c-0.24 0.12 -0.46 0.26 -0.7 0.36 c-0.12 0.04 -0.24 -0.02 -0.26 -0.14 c0 -0.24 0.02 -0.7 0.02 -0.7 z M71.30000000000001 15.48 c0 0.1 -0.02 0.28 -0.02 0.46 c-0.02 0.6 -0.8 1.36 -1.7 1.38 c-0.06 0 -0.16 -0.06 -0.18 -0.12 c-0.04 -0.12 -0.08 -0.26 -0.08 -0.4 c-0.02 -0.62 0 -1.22 0 -1.88 c0.06 -0.42 0.02 -0.86 0.02 -1.3 c0.02 -0.34 0.1 -0.4 0.42 -0.46 c0.48 -0.06 0.92 0.14 1.14 0.52 c0.26 0.46 0.36 0.96 0.4 1.48 l0 0.32 z M76.02 6.539999999999999 c0 0.96 -0.04 11.28 0 12.2 c0.02 0.22 0.02 0.44 0.02 0.66 c0 0.16 0.1 0.26 0.24 0.32 c0.12 0.04 0.28 0.08 0.4 0.08 c0.58 -0.06 1.2 0 1.8 -0.02 c1.04 0.08 1.98 -0.16 2.88 -0.64 c0.84 -0.48 1.3 -1.34 1.62 -2.24 c0.26 -0.76 0.22 -1.66 0.08 -2.44 c-0.12 -0.7 -0.44 -1.38 -0.86 -1.94 c-0.06 -0.08 -0.92 -0.62 -0.88 -0.66 c0.52 -0.74 1.26 -1.36 1.36 -2.28 c0.08 -0.8 -0.1 -1.62 -0.38 -2.36 c-0.18 -0.48 -0.42 -0.94 -0.8 -1.3 c-0.64 -0.6 -1.6 -0.86 -2.44 -0.94 c-0.86 -0.08 -1.66 -0.02 -2.52 -0.06 c-0.3 0 -0.44 0.12 -0.44 0.44 c0 0.42 -0.08 0.76 -0.08 1.18 z M78.48 10.18 c-0.02 -0.22 0 -1.98 -0.04 -2.64 c-0.02 -0.24 0.12 -0.36 0.38 -0.3 c0.2 0.04 0.36 0.06 0.52 0.18 c0.5 0.38 0.88 0.84 0.9 1.48 c0 0.32 0 0.64 -0.12 0.94 c-0.14 0.36 -0.34 0.64 -0.7 0.82 c-0.24 0.12 -0.46 0.26 -0.7 0.36 c-0.12 0.04 -0.24 -0.02 -0.26 -0.14 c0 -0.24 0.02 -0.7 0.02 -0.7 z M80.48 15.48 c0 0.1 -0.02 0.28 -0.02 0.46 c-0.02 0.6 -0.8 1.36 -1.7 1.38 c-0.06 0 -0.16 -0.06 -0.18 -0.12 c-0.04 -0.12 -0.08 -0.26 -0.08 -0.4 c-0.02 -0.62 0 -1.22 0 -1.88 c0.06 -0.42 0.02 -0.86 0.02 -1.3 c0.02 -0.34 0.1 -0.4 0.42 -0.46 c0.48 -0.06 0.92 0.14 1.14 0.52 c0.26 0.46 0.36 0.96 0.4 1.48 l0 0.32 z M85.18 6.960000000000001 c-0.02 1.24 0.1 10.3 0.08 10.96 c0 0.62 0 1.24 0.02 1.86 c0 0.1 0.06 0.2 0.16 0.2 c1.4 0.06 2.78 -0.06 4.18 -0.04 c0.46 0.02 0.92 0 1.36 0 c0.44 -0.02 0.48 -0.2 0.46 -0.56 c-0.02 -0.56 -0.02 -1.06 -0.02 -1.6 c-0.02 -0.28 -0.18 -0.38 -0.42 -0.38 c-0.82 0.02 -1.64 -0.02 -2.46 0.02 c-0.14 0.02 -0.28 0.02 -0.42 0.02 c-0.24 -0.02 -0.3 -0.08 -0.32 -0.34 l0 -0.3 c-0.06 -1.66 0.06 -3.38 0.06 -5.04 c-0.02 -1.4 0 -2.66 -0.02 -3.9 c0 -0.54 0 -1.08 -0.02 -1.6 c-0.02 -0.32 0 -0.66 -0.08 -0.98 c-0.04 -0.12 -0.1 -0.28 -0.24 -0.28 l-1.88 0 c-0.32 0 -0.42 0.22 -0.44 0.54 l0 1.42 z M93.46000000000001 15.9 l-0.02 0 c0 0.5 -0.02 1.02 0 1.54 c0.02 0.64 0.06 1.28 0.1 1.92 c0 0.22 0.06 0.28 0.26 0.32 c0.42 0.1 0.82 0.12 1.24 0.12 c1.08 -0.04 2.16 0.04 3.24 0 c0.44 -0.02 0.64 0.02 1.08 -0.06 c0.4 -0.08 0.54 -0.3 0.54 -0.9 c-0.04 -0.38 -0.02 -0.54 -0.02 -1 c0 -0.66 -0.46 -0.88 -0.86 -0.86 c-0.28 0.02 -1.62 -0.02 -2.16 -0.02 c-0.9 0.02 -0.76 0.14 -0.76 -0.8 c0 -0.76 0.02 -1.74 0.02 -2.52 c0 -0.42 0.04 -0.56 0.44 -0.56 l2.5 0 c0.4 0.06 0.68 -0.22 0.68 -0.64 s0.04 -0.44 0.04 -0.86 l-0.06 -0.6 c-0.04 -0.34 -0.16 -0.46 -0.5 -0.46 c-0.22 0 -0.44 0.02 -0.66 0.04 c-0.86 0.06 -1.26 -0.06 -2.1 0 c-0.28 0 -0.32 -0.04 -0.34 -0.3 c-0.08 -0.78 0 -1.64 0.08 -2.42 c0.02 -0.32 0.1 -0.38 0.4 -0.4 l2.82 -0.02 c0.38 -0.04 0.5 -0.02 0.48 -0.4 c-0.04 -0.58 0.02 -1.18 -0.04 -1.76 c-0.04 -0.32 -0.14 -0.38 -0.5 -0.38 c-0.6 0.02 -0.74 0.02 -1.34 0.06 c-0.6 0.02 -3 0.02 -3.58 0.02 c-0.84 0 -0.9 -0.06 -0.92 0.96 c-0.04 0.8 -0.02 1.62 -0.02 2.44 c0 1.4 -0.08 6.42 -0.04 7.54 z M104.38000000000001 18.5 c0 -0.52 0 -3.8 0.02 -4.06 c0.02 -0.06 0.06 -0.18 0.14 -0.18 s0.12 0.04 0.14 0.1 c0.8 1.56 1.5 3.12 2.22 4.64 c0.1 0.22 0.32 0.86 0.38 0.92 c0.08 0.12 0.22 0.08 0.34 0.08 l2.2 0.02 c0.26 0 0.32 -0.16 0.26 -0.38 c-0.16 -0.6 -1.3 -2.72 -1.56 -3.24 c-0.18 -0.4 -1.38 -2.72 -1.42 -2.9 c-0.04 -0.08 0.26 -0.22 0.3 -0.28 c0.96 -0.86 1.82 -1.74 2 -3.08 c0.2 -1.32 -0.1 -2.76 -0.96 -3.82 c-0.66 -0.78 -1.52 -1.24 -2.54 -1.3 c-0.62 -0.04 -1.22 0.02 -1.84 0 c-0.54 -0.02 -0.92 -0.02 -1.6 -0.02 c-0.32 0 -0.52 0.18 -0.54 0.52 l0 0.24 c-0.04 1.54 0 3.08 0.02 4.6 c0 2.32 -0.04 8.44 -0.04 9.32 c0 0.26 0.04 0.32 0.28 0.32 c0.14 0 0.3 0.02 0.44 0.02 c0.56 0 0.9 -0.02 1.48 -0.02 c0.44 0 0.28 -0.72 0.28 -1.5 z M104.38000000000001 10.7 l0.02 -2.02 c0.02 -0.3 -0.08 -0.9 0.2 -1.12 c0.38 -0.28 1.16 0 1.5 0.24 c1 0.68 0.92 2.36 0.38 3.3 c-0.26 0.44 -0.7 0.7 -1.2 0.84 c-0.3 0.08 -0.86 0.18 -0.88 -0.3 c0 -0.32 -0.02 -0.94 -0.02 -0.94 z M116.18 4.9 c-0.38 0.02 -0.76 0.08 -1.14 0.2 c-0.82 0.28 -1.56 0.84 -2.06 1.56 c-0.44 0.66 -0.62 1.44 -0.68 2.22 c-0.04 0.6 0.02 1.22 0.3 1.76 c0.3 0.58 0.82 1.08 1.26 1.56 c0.4 0.42 0.8 0.84 1.24 1.22 c0.4 0.38 0.86 0.68 1.26 1.08 c0.58 0.58 0.8 1.9 0.38 2.62 c-0.5 0.8 -1.68 0.92 -2.46 0.66 c-0.4 -0.14 -0.76 -0.44 -1.1 -0.68 c-0.2 -0.14 -0.44 -0.2 -0.58 0.04 c-0.08 0.12 -0.12 0.26 -0.16 0.38 c-0.14 0.5 -0.32 0.96 -0.34 1.5 c-0.02 0.62 1.16 0.8 1.6 0.9 c1.96 0.46 4.32 0.1 5.34 -1.84 c0.2 -0.4 0.34 -0.82 0.42 -1.26 c0.02 -0.16 0.04 -0.3 0.04 -0.46 c0.08 -1.28 -0.44 -2.36 -1.22 -3.32 c-0.84 -1.04 -1.9 -1.76 -2.88 -2.66 c-0.6 -0.56 -0.82 -1.44 -0.64 -2.24 c0.18 -0.86 1.16 -1.08 1.9 -0.86 c0.22 0.06 0.4 0.16 0.6 0.28 c0.12 0.06 0.24 0.14 0.4 0.14 c0.28 0.02 0.32 -0.2 0.38 -0.42 c0.14 -0.5 0.38 -0.9 0.48 -1.38 c0.1 -0.54 -0.34 -0.64 -0.78 -0.78 c-0.52 -0.14 -1.02 -0.24 -1.56 -0.22 z"></path></g>
			</g>
		</svg>
	