<?xml version="1.0" standalone="no"?>
<!DOCTYPE svg PUBLIC "-//W3C//DTD SVG 20010904//EN"
 "http://www.w3.org/TR/2001/REC-SVG-20010904/DTD/svg10.dtd">
<svg version="1.0" xmlns="http://www.w3.org/2000/svg"
 width="1145.000000pt" height="1280.000000pt" viewBox="0 0 1145.000000 1280.000000"
 preserveAspectRatio="xMidYMid meet">
<g transform="translate(0.000000,1280.000000) scale(0.100000,-0.100000)"
fill="#000000" stroke="none">
<path d="M10435 12730 c-26 -27 -35 -30 -91 -30 -44 0 -65 5 -75 16 -11 14
-13 14 -21 0 -8 -14 -44 -16 -268 -16 -688 0 -1392 -74 -2006 -211 l-186 -42
-128 32 c-269 67 -440 45 -452 -57 -4 -33 -17 -33 -143 -3 -170 41 -461 39
-630 -4 -86 -22 -201 -81 -247 -127 -124 -124 -102 -304 63 -524 32 -43 55
-82 52 -87 -5 -8 -37 -30 -151 -101 -41 -25 -42 -27 -27 -50 14 -20 14 -27 0
-66 -57 -163 -382 -575 -707 -898 l-134 -133 -109 -24 c-398 -90 -820 -299
-1036 -515 -47 -47 -99 -110 -116 -141 -75 -134 -222 -201 -536 -245 -60 -8
-67 -19 -22 -34 128 -42 35 -148 -465 -530 -342 -261 -409 -319 -562 -488
-362 -397 -596 -733 -800 -1147 -317 -645 -451 -1310 -435 -2164 7 -399 43
-791 112 -1234 14 -88 25 -169 25 -181 0 -12 -14 -35 -31 -52 -48 -46 -53 -61
-59 -191 -5 -115 -7 -124 -35 -164 -39 -55 -130 -108 -252 -148 -125 -41 -140
-56 -52 -47 128 12 131 -15 12 -110 -408 -322 -699 -671 -829 -994 -45 -110
-94 -321 -94 -400 0 -79 55 -273 100 -358 152 -281 469 -484 925 -592 268 -63
424 -80 809 -87 608 -11 1099 52 1941 248 764 178 1216 242 1820 255 937 21
1784 -150 2530 -510 271 -131 518 -281 780 -474 61 -45 112 -77 114 -71 12 37
-88 189 -207 312 -457 473 -1299 855 -2252 1021 -477 83 -1038 121 -1430 97
-432 -27 -733 -65 -1788 -225 -789 -120 -1133 -156 -1504 -156 -494 0 -728 77
-920 305 -75 89 -132 202 -148 293 -69 413 537 853 1505 1092 414 102 665 135
1035 134 151 -1 289 -5 305 -11 26 -8 33 -19 55 -84 31 -91 34 -95 73 -116 49
-27 193 -23 350 10 182 39 208 30 277 -98 43 -78 84 -121 134 -140 73 -27 246
-45 551 -55 695 -23 853 -45 1069 -142 156 -71 235 -85 390 -70 241 24 286 15
286 -58 0 -55 21 -64 148 -62 57 1 108 4 113 8 5 3 9 20 9 37 0 62 4 63 152
38 158 -27 188 -26 205 10 12 25 15 26 82 21 78 -5 127 2 154 23 18 13 17 16
-21 64 -22 28 -67 101 -99 162 -62 118 -115 179 -158 179 -13 0 -29 6 -34 12
-61 78 -87 99 -135 113 -71 21 -416 35 -851 35 -373 0 -532 9 -695 36 -170 29
-380 100 -380 129 0 13 119 99 179 130 45 23 269 64 349 65 78 0 227 -37 364
-90 279 -110 523 -136 704 -75 69 23 75 24 111 9 26 -12 55 -15 95 -11 47 4
62 2 82 -14 14 -11 51 -32 83 -47 62 -29 42 -28 380 -23 87 1 94 3 109 26 9
14 28 31 43 38 36 17 37 46 3 135 -16 42 -35 101 -42 130 -15 67 -32 77 -140
92 -47 7 -159 28 -250 47 -240 50 -438 80 -680 103 -327 31 -399 40 -470 57
-79 19 -189 69 -197 90 -3 8 13 56 37 106 154 332 239 614 240 802 1 60 27
127 99 250 202 343 261 471 261 567 0 38 -6 53 -36 89 -62 74 -81 129 -46 129
10 0 44 -18 76 -41 46 -33 60 -38 71 -29 22 19 41 90 96 375 82 424 144 651
245 903 81 203 201 416 302 540 33 40 37 42 90 42 95 0 205 37 391 133 201
103 276 133 381 153 111 22 327 30 375 14 67 -21 75 -33 75 -119 0 -88 11
-135 43 -181 25 -38 243 -193 258 -185 17 11 9 33 -25 78 -68 89 -71 110 -21
166 67 74 124 85 261 51 105 -26 132 -54 164 -171 53 -199 -9 -350 -219 -533
-99 -86 -114 -112 -56 -103 40 7 94 42 225 148 176 141 250 178 250 124 0 -38
-22 -84 -84 -175 -31 -45 -55 -88 -53 -94 2 -6 17 -11 33 -11 26 0 36 11 88
90 195 299 190 298 221 68 21 -147 26 -158 54 -113 106 175 -5 466 -308 808
-105 118 -181 179 -289 232 -184 91 -214 123 -124 135 26 3 128 27 227 52 306
78 344 85 455 86 132 1 172 -10 291 -84 125 -77 156 -89 229 -89 73 0 106 -15
153 -71 46 -53 65 -111 78 -234 15 -142 16 -147 41 -143 45 7 59 45 69 194 12
181 18 208 48 212 84 12 154 -43 215 -172 25 -50 55 -124 67 -163 13 -40 28
-73 35 -73 6 0 20 17 29 37 23 48 15 137 -24 292 -16 62 -27 119 -24 127 3 9
33 -2 109 -42 160 -83 175 -70 62 52 -122 130 -284 239 -500 336 -93 42 -181
68 -502 149 -605 154 -1008 275 -1326 396 -229 88 -480 215 -480 244 0 6 11
25 25 41 44 52 111 204 194 443 45 127 98 273 118 325 125 327 268 533 429
617 39 20 70 48 113 103 195 246 483 465 867 656 l91 46 110 -23 c132 -28 170
-21 239 43 51 47 107 153 102 193 -4 36 -41 63 -97 73 -25 4 -46 13 -48 19 -5
15 44 46 107 70 80 29 83 36 76 135 l-7 86 48 39 c85 67 192 180 182 190 -7 7
-3 28 9 60 15 41 17 53 7 67 -7 9 -16 46 -20 82 l-7 65 55 59 c62 66 87 126
87 205 0 62 -23 98 -73 114 -39 12 -281 31 -399 31 -48 0 -90 4 -93 10 -3 5
-1 19 5 30 15 28 9 25 -25 -10z"/>
</g>
</svg>
