<svg xmlns="http://www.w3.org/2000/svg" width="133.615" height="133.615" viewBox="0 0 133.615 133.615">
  <g id="logo" transform="translate(-1186.167 -750.463)">
    <g id="symbol">
      <circle id="Ellipse_13" data-name="Ellipse 13" cx="66.807" cy="66.807" r="66.807" transform="translate(1186.167 750.463)" fill="#000000"/>
      <g id="Group_56" data-name="Group 56" transform="translate(1215.911 781.247)">
        <path id="Path_137" data-name="Path 137" d="M1250.31,2323.325c.011-.075.023-.151.031-.226s.015-.154.021-.23c.013-.142.021-.285.027-.426,0-.063,0-.125,0-.186,0-.045.006-.089.006-.134,0-.029,0-.055,0-.083,0-.157-.009-.315-.019-.472,0-.035,0-.067-.008-.1l-.007-.078c0-.067-.009-.134-.015-.2-.018-.155-.04-.308-.066-.461l-.009-.048-.023-.126c-.013-.072-.024-.144-.039-.214-.03-.138-.064-.274-.1-.41l-.02-.067-.024-.089c-.026-.089-.048-.177-.077-.264-.036-.113-.078-.226-.12-.34-.018-.05-.039-.1-.058-.148-.041-.1-.078-.207-.122-.308s-.084-.183-.127-.274c-.034-.071-.07-.14-.106-.209-.045-.09-.09-.178-.138-.267-.022-.04-.04-.083-.063-.123s-.053-.077-.077-.117c-.051-.086-.107-.168-.161-.252-.042-.066-.084-.132-.128-.2-.057-.083-.115-.168-.175-.251s-.137-.172-.2-.258c-.035-.041-.065-.084-.1-.125-.078-.093-.155-.186-.236-.276-.062-.067-.128-.13-.19-.2l-.065-.067-.046-.048c-.1-.1-.2-.2-.306-.292-.054-.05-.111-.1-.168-.143-.031-.029-.064-.055-.1-.084l-.034-.03c-.12-.1-.241-.194-.366-.286-.054-.039-.111-.077-.167-.116l-.064-.043-.082-.057c-.131-.087-.264-.173-.4-.252-.024-.015-.047-.032-.07-.047-.041-.023-.084-.041-.125-.063l-.156-.085c-.12-.063-.24-.125-.363-.181-.077-.036-.155-.072-.233-.105s-.14-.058-.208-.085c-.1-.039-.192-.078-.291-.113l-.008,0v-31.037h-5.8v8.744l-5.938-5.937-4.1,4.1,10.038,10.037v14.093l-.012,0c-.1.036-.192.074-.288.113-.069.028-.138.054-.207.084s-.156.071-.234.107c-.123.057-.243.118-.363.181-.052.028-.1.056-.154.085s-.084.041-.125.063c-.025.015-.048.033-.073.047-.135.081-.267.165-.4.252l-.081.055-.031.023c-.066.045-.132.088-.2.135-.126.093-.249.191-.371.292l-.033.028-.032.025-.029.024-12.2-7.046-3.674-13.713-5.6,1.5,2.174,8.112-7.574-4.374-2.9,5.022,7.573,4.374-8.111,2.172,1.5,5.6,13.711-3.675,12.2,7.045c-.012.071-.026.141-.038.211-.018.123-.034.246-.048.371-.007.063-.01.126-.016.189-.009.1-.02.2-.024.306-.006.119-.009.239-.009.357,0,.029,0,.056,0,.083s0,.054,0,.083c0,.118,0,.237.009.354s.015.207.024.311c.006.063.009.126.016.189.014.122.029.243.048.365.011.072.026.144.038.216l-12.2,7.046-13.711-3.674-1.5,5.6,8.111,2.174-7.573,4.371,2.9,5.024,7.574-4.374-2.174,8.111,5.6,1.5,3.674-13.712,12.2-7.046.031.026.021.018.045.038c.12.1.24.195.366.286.065.048.132.092.2.138l.022.015c.032.021.062.043.094.065.127.086.258.169.392.247.026.015.048.033.073.047.05.03.1.054.153.082l.119.063.05.027c.078.041.154.083.234.12.122.06.245.114.368.168l.037.017c.077.033.153.061.231.091l.125.047.067.025v14.088l-10.038,10.039,4.1,4.1,5.938-5.938v8.746h5.8v-8.746l5.937,5.938,4.1-4.1-10.037-10.039v-14.088l.066-.025.126-.047c.076-.03.153-.058.229-.091l.041-.018c.121-.052.243-.106.363-.165.081-.039.159-.081.237-.123l.046-.025c.041-.022.081-.043.122-.066s.1-.053.153-.081c.024-.013.046-.031.07-.047.134-.078.264-.16.393-.246l.1-.068.023-.015c.066-.044.132-.088.2-.136.125-.091.246-.187.366-.285l.047-.041.021-.018.03-.024,12.205,7.046,3.674,13.712,5.6-1.5-2.174-8.111,7.573,4.374,2.9-5.024-26.88-15.518C1250.279,2323.535,1250.3,2323.43,1250.31,2323.325Z" transform="translate(-1205.992 -2282.952)" fill="#fff"/>
        <path id="Path_138" data-name="Path 138" d="M1249.554,2316.884a13.994,13.994,0,0,0-12.205-20.83v5.8a8.2,8.2,0,0,1,7.149,12.193Z" transform="translate(-1190.303 -2276.437)" fill="#fff"/>
        <path id="Path_139" data-name="Path 139" d="M1235.117,2282.978v5.8a28.756,28.756,0,0,1,24.616,43.61l4.962,3a34.555,34.555,0,0,0-29.578-52.411Z" transform="translate(-1191.42 -2282.978)" fill="#fff"/>
      </g>
    </g>
  </g>
</svg>
